<svg width="753" height="421" viewBox="0 0 753 421" fill="none" xmlns="http://www.w3.org/2000/svg">
<path fill-rule="evenodd" clip-rule="evenodd" d="M167.5 350.5L161.5 364H158.5C158.5 364 162 359.5 160 356.5H144C144 356.5 121.5 416.5 66.5002 419.5C44.0001 420.727 33.917 405.5 32.5002 388.5C31.0834 371.5 44.5 353.598 69.0002 352C92 350.5 116.5 383.5 116.5 383.5C120 376.5 129.5 360.5 99.5002 356.5L102.5 350.5H141C141 350.5 146 326 178.5 313.5C187 310.231 187.386 313.422 184 318.5C181 323 179.5 328 177.5 328C175.5 328 181.329 318.971 178.5 318.5C175.672 318.029 158 316.5 147 350.5H167.5ZM115 356.5H138C138 356.5 119.5 414.5 70 414.5C55 414.5 36 403.553 36 385.5C36 376 42.5 355.5 65 355.5C90 355.5 113 392.5 113 392.5H114C114 392.5 124 379.017 124 371.5C124 363.5 115 356.5 115 356.5Z" fill="white"/>
<path d="M190 344.5C188.388 343.694 173 349.72 173 351C173 352.5 181.077 349 180.5 351.5C179.346 356.5 160.001 383.5 160 390.5C160 392 174.5 386 174.5 384.5C174.5 382 171 385.167 169 384.5C165.5 383.333 192 345.5 190 344.5Z" fill="white"/>
<path d="M191.5 332.5C192 331 194.184 328.802 196 329.5C197.12 329.931 197.883 331.926 196.5 334C195.5 335.5 194 336.5 192.5 336C191.551 335.684 190.793 334.621 191.5 332.5Z" fill="white"/>
<path d="M200.5 353.5C198.832 353.5 196 354.5 195.5 354C193.5 352 207 346 209.5 348C211.452 349.562 205 358.5 205 358.5C205 358.5 220 345 224.5 345C229 345 200.5 359.5 190.5 387.5C189.495 390.313 184.612 390.806 183 390C181.387 389.194 203.5 353.5 200.5 353.5Z" fill="white"/>
<path d="M222 390.5C237 390.5 254 368 251 367C248 366 239.531 384.079 227 385C209.223 386.307 250.5 337 255 349.5C256.08 352.5 250.225 360.086 238.5 361C236 361.195 234.5 362 235.5 363.5C236.5 365 247.5 362.5 253.5 357.5C257.25 354.375 258.412 347.59 254 345.5C244.5 341 216 373 216 385.5C216 388 216 390.5 222 390.5Z" fill="white"/>
<path d="M273 349C252 382.5 246 416 224 415.5C219.564 415.399 218 414.5 218.13 417.301C218.13 421 221.691 421 223.5 421C238.5 421 254 390 254 390L257.5 390L279 349L288 349L288.5 347H280.5C280.5 347 287 329 301 322.5C312.846 317 319.5 315.5 315.5 322C313.666 324.981 288.5 356.5 278 386.5C277.505 387.916 277 390.5 281 390.5C286.025 390.5 296 382.333 295 381C293.653 379.203 287 388 286 384.5C284.566 379.48 316.504 329.121 325 318.5C329 313.5 312 314.5 300 320.5C286.786 327.107 273 347 273 347H267.5V349H273Z" fill="white"/>
<path d="M317 354C316.891 351.82 311.5 356.081 311.5 354.5C311.5 352 319 348.7 322.5 351.5C325 353.5 320 369 320 369C320 369 334.289 350.839 349 349C353 348.5 355 348.5 352.5 354.5C343.889 375.167 320 393.5 309.5 396.5C300.635 399.033 286.5 400.5 286.5 408C286.5 411.684 290.5 413.5 295 413.5C304.5 413.5 306.25 410 307 411.5C308 413.5 300.223 417.911 295 417.5C289.705 417.084 284.212 415.308 284 410C283.5 397.5 299.5 392 310.5 391C331.702 389.073 353 353.161 343.5 353.5C329.5 354 308.5 391.225 305.5 390.5C302.5 389.775 317.5 364 317 354Z" fill="white"/>
<path d="M452 122.5L370 128.5L371 137.5L451 131.5L449.5 159.5L490.5 157L492 127.5L510.5 127L513.5 118L493 119.5L495 88L453.5 98.5L452 122.5Z" fill="white" stroke="white"/>
<path d="M536 124.5L539.5 115.5L557 114L558 89.9999L600.5 79.9999L598.5 111.5L645 107C657.5 93.9999 677.5 88.9999 677.5 88.9999C662 97.4999 663.225 103.341 669.5 102.5C677.109 101.48 685.776 96.9999 700 84.4999C700 84.4999 718 72.5 725.5 72.5C729.696 72.5 731.5 73.5 731.5 73.5C731.5 73.5 718.659 70.8337 706 94.9999C695 116 677.5 131 663.5 137.5C657.126 140.459 646 148.5 657 148.5C659.851 148.5 662 148 668.5 144.5C691.5 132.115 697.5 125.5 720.5 120.5V122.5C692 131.5 677.5 147 660 175.5C646 198.3 569.5 218.5 549.5 216.5C616 200 623 165.5 623 165.5L419.5 180.5C419.5 180.5 415 224 387 224C372.928 224 369 210 369 205C369 187.5 389 176.5 389 176.5C389 176.5 381 183 380 188.5C380 188.5 387.589 185.364 391.5 182C414.756 162 410.648 152.38 412 149C412.6 147.5 416.5 147.5 417 149C417.5 150.5 419.5 171.5 419.5 171.5C419.5 171.5 609.5 157.625 614 156.5C619.29 155.177 639.332 146.204 655 137.5C673 127.5 678.5 114 678.5 114L597.5 120L596 148L554.5 152L556 123.5L536 124.5Z" fill="white" stroke="white"/>
<path fill-rule="evenodd" clip-rule="evenodd" d="M399.5 325C399.5 325 415.502 305.426 416 290.5C417 260.5 419.5 208 419.5 208L449 224C449 224 443 247.5 457 265.5C453.122 269.676 443 283.5 443 289C443 293.5 449.5 292.565 454.5 292.5C493 292 507.5 266.5 507.5 260.5C507.5 255 491.5 232.5 458 232.5V230.5L501 228.5L503 194.5L545 184L542 224.5C640.594 222.5 641 200 663.5 189C663.5 189 651 201 641 220C633.368 234.5 630.483 238.142 623.5 247.5L621 288.5L579 301.5L590.5 283.5C589 266.5 580.5 257 580.5 257C597 238 596.007 230.445 593 230C553.5 224.158 530 253.5 530 260.5C530 268 550.5 291.5 576.5 289.5L576 291.5L537 294L535 331.5L588 327.5L382.5 377.5L401.5 341.5L494 335.5L496.5 298L454.5 300.5L454 307L399.5 325ZM511 241.5C511 249.629 519.5 260.5 519.5 260.5C519.5 260.5 530 249.978 530 241.5C530 233.5 527.5 228.5 520.5 228.5C513.5 228.5 511 234.5 511 241.5ZM508 286.5C508 275.5 518.5 266.5 518.5 266.5C518.5 266.5 528 275.859 528 286.5C528 294.5 524 298.5 518.5 298.5C513 298.5 508 295.5 508 286.5Z" fill="white" stroke="white"/>
<path d="M545.5 315V313C545.5 313 561.034 312 571 312C608 312 627.5 327 627.5 327L615 312C615 312 645 327 645 354C645 373 631.483 384.5 614.5 384.5C601.5 384.5 588.5 377 588.5 365C588.5 360.5 588 353.5 595.5 353.5C599.5 353.5 614.77 365.049 612 351C605 315.5 545.5 315 545.5 315Z" fill="white" stroke="white"/>
<path d="M750.5 63.5001C748.275 63.5002 739 71.499 739 71.499C739 71.499 750.744 72.2771 752 65.999C752.3 64.5 751.5 63.5 750.5 63.5001Z" fill="white" stroke="white"/>
<path d="M93.5 42.5C77.1899 31.6266 33 10.5 33 10.5C33 10.5 44 76.5 72.5 90C72.5 90 53.5 98 49.5 110.5C47.9527 115.335 48.2981 122.596 51 128C60.5 147 64.8217 157.252 67 172.5C69.9286 193 68 228 61.5 236.5H62C71 221 79.3751 200.543 78 173.5H79.5C86 198 85 205 85 205C85 205 104.5 167.5 104.5 151C104.5 135.992 66.5 114 64 111C61.5 108 61.5 104.5 65.5 102C69.5 99.5 74.5 97 84 97C93.5 97 95.5 99.5 104.5 99.5C113.5 99.5 118.5 98.5 119 84C119 64 99.5 46.5 93.5 42.5Z" fill="white" stroke="white"/>
<path d="M124 140.5C124 140.5 126 196.5 106 259C106 259 118.412 236 119 224C120.5 246.5 109.196 280.523 88 308C74.5 325.5 53.5 329 49.5 329.5C74.3223 319.748 69.5 298.5 40.5 322C36.7979 325 32.6551 328.164 27.5 331.5C20 336.353 12.3131 338.798 11 339C4.5 340 1 339 1 339C1 339 7.07364 339.523 14 333.5C25.5 323.5 20.7308 321.342 29.5 312.5C90 251.5 124 140.5 124 140.5Z" fill="white" stroke="white"/>
<path d="M233 59C237 58.5 251.69 51.0522 251 39.5C249.298 10.9956 214.999 2.49759 206 1C206 1 222.5 7 227.5 14.5C227.5 14.5 204.5 4.50054 186.5 2.5C199 16 204.02 33.1627 206 39.5C208.5 47.5 212.481 56.5581 222 59C226.161 60.0674 228.738 59.5328 233 59Z" fill="white" stroke="white"/>
<path d="M313.5 57.0001L135 71.5001L136.5 79.5001L210 74.5001C210 74.5001 200.5 91 150 129C150 129 173.197 126.542 187.5 122.5C220 113.315 250.5 90.5 265.5 78L231.5 72.5001L345.5 63.5001C345.5 63.5001 337 74.3333 316.5 88C291.75 104.5 283 103.5 265 103.5V106.5L280.5 117.5C280.5 117.5 227.5 125.5 144 134.5L154 169.5C154 169.5 217 150 285 125.5C285 125.5 290 131 291 137C293 149 300 160.5 313 160.5C320.752 160.5 326.335 155.598 328.5 148C330.305 141.665 325.043 135.69 325.5 131.5C328.5 104 360 94.5 360 94.5C360 94.5 348.5 95.5 338.5 100.5C334.679 102.411 319.5 109.385 316 109C310 108.34 305.054 101.775 312 97C344 75 364.386 59.7754 369 56C380 47 383 43.2083 386 38.5C396.832 21.5 411 15.5 411 15.5C404 15 384.867 28.3308 381.5 31.5001C364.5 47.5001 346 52.5 344 47C342.5 42 359 32.5001 359 32.5001C359 32.5001 344.5 33.5001 313.5 57.0001Z" fill="white" stroke="white"/>
<path d="M193.5 177.5L154.5 188C150.5 226 151.5 276.5 101.5 316.5L104 318.5C186 286 193.5 216.5 193.5 177.5Z" fill="white" stroke="white"/>
<path d="M212 184.5L249.5 171L242 284.5C242 284.5 214 292 190 301.5C196.787 294.819 203.271 284 204.5 273.5C208.479 239.5 212 184.5 212 184.5Z" fill="white" stroke="white"/>
<path d="M302.5 172L265 185.5C265 185.5 261 250 260 292C259.702 304.496 269.15 306.5 276.5 306.5H288.5C299 306.5 348 291 348 291V277.5C348 263 360.752 246.382 392 238.5C393.136 238.213 392 235.5 392 235.5L298 265L302.5 172Z" fill="white" stroke="white"/>
<path d="M388.287 82.3211C388 81.6522 386.227 81.7367 385.316 82.3212C378.384 86.7686 366.5 91.7102 366.5 91.7102C366.5 91.7102 373.5 91.5 378 90C384 88 389.5 85.1455 388.287 82.3211Z" fill="white" stroke="white"/>
<path d="M452 122.5L370 128.5L371 137.5L451 131.5L449.5 159.5L490.5 157L492 127.5L510.5 127L513.5 118L493 119.5L495 88L453.5 98.5L452 122.5Z" stroke="white" stroke-opacity="0.5"/>
<path d="M536 124.5L539.5 115.5L557 114L558 89.9999L600.5 79.9999L598.5 111.5L645 107C657.5 93.9999 677.5 88.9999 677.5 88.9999C662 97.4999 663.225 103.341 669.5 102.5C677.109 101.48 685.776 96.9999 700 84.4999C700 84.4999 718 72.5 725.5 72.5C729.696 72.5 731.5 73.5 731.5 73.5C731.5 73.5 718.659 70.8337 706 94.9999C695 116 677.5 131 663.5 137.5C657.126 140.459 646 148.5 657 148.5C659.851 148.5 662 148 668.5 144.5C691.5 132.115 697.5 125.5 720.5 120.5V122.5C692 131.5 677.5 147 660 175.5C646 198.3 569.5 218.5 549.5 216.5C616 200 623 165.5 623 165.5L419.5 180.5C419.5 180.5 415 224 387 224C372.928 224 369 210 369 205C369 187.5 389 176.5 389 176.5C389 176.5 381 183 380 188.5C380 188.5 387.589 185.364 391.5 182C414.756 162 410.648 152.38 412 149C412.6 147.5 416.5 147.5 417 149C417.5 150.5 419.5 171.5 419.5 171.5C419.5 171.5 609.5 157.625 614 156.5C619.29 155.177 639.332 146.204 655 137.5C673 127.5 678.5 114 678.5 114L597.5 120L596 148L554.5 152L556 123.5L536 124.5Z" stroke="white" stroke-opacity="0.5"/>
<path fill-rule="evenodd" clip-rule="evenodd" d="M399.5 325C399.5 325 415.502 305.426 416 290.5C417 260.5 419.5 208 419.5 208L449 224C449 224 443 247.5 457 265.5C453.122 269.676 443 283.5 443 289C443 293.5 449.5 292.565 454.5 292.5C493 292 507.5 266.5 507.5 260.5C507.5 255 491.5 232.5 458 232.5V230.5L501 228.5L503 194.5L545 184L542 224.5C640.594 222.5 641 200 663.5 189C663.5 189 651 201 641 220C633.368 234.5 630.483 238.142 623.5 247.5L621 288.5L579 301.5L590.5 283.5C589 266.5 580.5 257 580.5 257C597 238 596.007 230.445 593 230C553.5 224.158 530 253.5 530 260.5C530 268 550.5 291.5 576.5 289.5L576 291.5L537 294L535 331.5L588 327.5L382.5 377.5L401.5 341.5L494 335.5L496.5 298L454.5 300.5L454 307L399.5 325ZM511 241.5C511 249.629 519.5 260.5 519.5 260.5C519.5 260.5 530 249.978 530 241.5C530 233.5 527.5 228.5 520.5 228.5C513.5 228.5 511 234.5 511 241.5ZM508 286.5C508 275.5 518.5 266.5 518.5 266.5C518.5 266.5 528 275.859 528 286.5C528 294.5 524 298.5 518.5 298.5C513 298.5 508 295.5 508 286.5Z" stroke="white" stroke-opacity="0.5"/>
<path d="M545.5 315V313C545.5 313 561.034 312 571 312C608 312 627.5 327 627.5 327L615 312C615 312 645 327 645 354C645 373 631.483 384.5 614.5 384.5C601.5 384.5 588.5 377 588.5 365C588.5 360.5 588 353.5 595.5 353.5C599.5 353.5 614.77 365.049 612 351C605 315.5 545.5 315 545.5 315Z" stroke="white" stroke-opacity="0.5"/>
<path d="M750.5 63.5001C748.275 63.5002 739 71.499 739 71.499C739 71.499 750.744 72.2771 752 65.999C752.3 64.5 751.5 63.5 750.5 63.5001Z" stroke="white" stroke-opacity="0.5"/>
<path d="M93.5 42.5C77.1899 31.6266 33 10.5 33 10.5C33 10.5 44 76.5 72.5 90C72.5 90 53.5 98 49.5 110.5C47.9527 115.335 48.2981 122.596 51 128C60.5 147 64.8217 157.252 67 172.5C69.9286 193 68 228 61.5 236.5H62C71 221 79.3751 200.543 78 173.5H79.5C86 198 85 205 85 205C85 205 104.5 167.5 104.5 151C104.5 135.992 66.5 114 64 111C61.5 108 61.5 104.5 65.5 102C69.5 99.5 74.5 97 84 97C93.5 97 95.5 99.5 104.5 99.5C113.5 99.5 118.5 98.5 119 84C119 64 99.5 46.5 93.5 42.5Z" stroke="white" stroke-opacity="0.5"/>
<path d="M124 140.5C124 140.5 126 196.5 106 259C106 259 118.412 236 119 224C120.5 246.5 109.196 280.523 88 308C74.5 325.5 53.5 329 49.5 329.5C74.3223 319.748 69.5 298.5 40.5 322C36.7979 325 32.6551 328.164 27.5 331.5C20 336.353 12.3131 338.798 11 339C4.5 340 1 339 1 339C1 339 7.07364 339.523 14 333.5C25.5 323.5 20.7308 321.342 29.5 312.5C90 251.5 124 140.5 124 140.5Z" stroke="white" stroke-opacity="0.5"/>
<path d="M233 59C237 58.5 251.69 51.0522 251 39.5C249.298 10.9956 214.999 2.49759 206 1C206 1 222.5 7 227.5 14.5C227.5 14.5 204.5 4.50054 186.5 2.5C199 16 204.02 33.1627 206 39.5C208.5 47.5 212.481 56.5581 222 59C226.161 60.0674 228.738 59.5328 233 59Z" stroke="white" stroke-opacity="0.5"/>
<path d="M313.5 57.0001L135 71.5001L136.5 79.5001L210 74.5001C210 74.5001 200.5 91 150 129C150 129 173.197 126.542 187.5 122.5C220 113.315 250.5 90.5 265.5 78L231.5 72.5001L345.5 63.5001C345.5 63.5001 337 74.3333 316.5 88C291.75 104.5 283 103.5 265 103.5V106.5L280.5 117.5C280.5 117.5 227.5 125.5 144 134.5L154 169.5C154 169.5 217 150 285 125.5C285 125.5 290 131 291 137C293 149 300 160.5 313 160.5C320.752 160.5 326.335 155.598 328.5 148C330.305 141.665 325.043 135.69 325.5 131.5C328.5 104 360 94.5 360 94.5C360 94.5 348.5 95.5 338.5 100.5C334.679 102.411 319.5 109.385 316 109C310 108.34 305.054 101.775 312 97C344 75 364.386 59.7754 369 56C380 47 383 43.2083 386 38.5C396.832 21.5 411 15.5 411 15.5C404 15 384.867 28.3308 381.5 31.5001C364.5 47.5001 346 52.5 344 47C342.5 42 359 32.5001 359 32.5001C359 32.5001 344.5 33.5001 313.5 57.0001Z" stroke="white" stroke-opacity="0.5"/>
<path d="M193.5 177.5L154.5 188C150.5 226 151.5 276.5 101.5 316.5L104 318.5C186 286 193.5 216.5 193.5 177.5Z" stroke="white" stroke-opacity="0.5"/>
<path d="M212 184.5L249.5 171L242 284.5C242 284.5 214 292 190 301.5C196.787 294.819 203.271 284 204.5 273.5C208.479 239.5 212 184.5 212 184.5Z" stroke="white" stroke-opacity="0.5"/>
<path d="M302.5 172L265 185.5C265 185.5 261 250 260 292C259.702 304.496 269.15 306.5 276.5 306.5H288.5C299 306.5 348 291 348 291V277.5C348 263 360.752 246.382 392 238.5C393.136 238.213 392 235.5 392 235.5L298 265L302.5 172Z" stroke="white" stroke-opacity="0.5"/>
<path d="M388.287 82.3211C388 81.6522 386.227 81.7367 385.316 82.3212C378.384 86.7686 366.5 91.7102 366.5 91.7102C366.5 91.7102 373.5 91.5 378 90C384 88 389.5 85.1455 388.287 82.3211Z" stroke="white" stroke-opacity="0.5"/>
<path d="M72 39C56.5 31.5 43 22.5 43 22.5C43 22.5 50 42 56 51.5M72 39C90 47.7097 95 51 104 64C113 77 113.5 77.5 113.5 77.5M72 39L87.5 68.5M87.5 68.5L104.5 84M87.5 68.5C87.5 68.5 68.1063 57.9437 56 51.5M56 51.5C63 62.5833 64 80 101.5 91" stroke="url(#paint0_linear_10_30)"/>
<defs>
<linearGradient id="paint0_linear_10_30" x1="41.5" y1="21" x2="104" y2="84.5" gradientUnits="userSpaceOnUse">
<stop stop-color="white"/>
<stop offset="0.595" stop-color="white" stop-opacity="0.855"/>
<stop offset="1" stop-color="white" stop-opacity="0"/>
</linearGradient>
</defs>
</svg>
