<svg width="136" height="33" viewBox="0 0 136 33" fill="none" xmlns="http://www.w3.org/2000/svg">
<path d="M0 15.2333C5.00005 15.2333 13 7.23329 13 2.23326H15C15 2.23326 15 -2.78165 15 2.21839C15 7.21843 22 15.2333 27 15.2333C32 15.2333 28 15.2333 28 15.2333V17.2333H27C22 17.2333 15 25.2184 15 30.2184C15 35.2184 15 30.2333 15 30.2333H13C13 30.2283 13 30.2234 13 30.2184C13 25.2184 5.00005 17.2333 0 17.2333V15.2333Z" fill="#FFC700"/>
<path d="M28 15.2333C33 15.2333 40 7.23329 40 2.23326H42C42 2.23326 42 -2.78165 42 2.21839C42 7.21843 49 15.2333 54 15.2333C59 15.2333 55 15.2333 55 15.2333V17.2333H54C49 17.2333 42 25.2184 42 30.2184C42 35.2184 42 30.2333 42 30.2333H40C40 30.2283 40 30.2234 40 30.2184C40 25.2184 33 17.2333 28 17.2333H27V15.2333H28Z" fill="#FFC700"/>
<path d="M55 15.2333C60 15.2333 67 7.23329 67 2.23326H69C69 2.23326 69 -2.78165 69 2.21839C69 7.21843 76 15.2333 81 15.2333C86 15.2333 82 15.2333 82 15.2333V17.2333H81C76 17.2333 69 25.2184 69 30.2184C69 35.2184 69 30.2333 69 30.2333H67C67 30.2283 67 30.2234 67 30.2184C67 25.2184 60 17.2333 55 17.2333H54V15.2333H55Z" fill="#FFC700"/>
<path d="M82 15.2333C87 15.2333 94 7.23329 94 2.23326H96C96 2.23326 96 -2.78165 96 2.21839C96 7.21843 103 15.2333 108 15.2333C113 15.2333 109 15.2333 109 15.2333V17.2333H108C103 17.2333 96 25.2184 96 30.2184C96 35.2184 96 30.2333 96 30.2333H94C94 30.2283 94 30.2234 94 30.2184C94 25.2184 87 17.2333 82 17.2333H81V15.2333H82Z" fill="#FFC700"/>
<path d="M109 15.2333C114 15.2333 121 7.23329 121 2.23326H123C123 2.23326 123 -2.78165 123 2.21839C123 7.21843 131 15.2333 136 15.2333V17.2333C131 17.2333 123 25.2184 123 30.2184C123 35.2184 123 30.2333 123 30.2333H121C121 30.2283 121 30.2234 121 30.2184C121 25.2184 114 17.2333 109 17.2333H108V15.2333H109Z" fill="#FFC700"/>
</svg>
